inDegrees=yes
name=ik_imu_orientations_sensors
DataType=double
version=3
OpenSimVersion=4.4-2022-07-23-0e9fedc
endheader
time	r_x	r_y	r_z	t_x	t_y	t_z	sternoclavicular_r2	sternoclavicular_r3	unrotscap_r3	unrotscap_r2	acromioclavicular_r2	acromioclavicular_r3	acromioclavicular_r1	unrothum_r1	unrothum_r3	unrothum_r2	elv_angle	shoulder_elv	shoulder1_r2	shoulder_rot	elbow_flexion	pro_sup	deviation	flexion	wrist_hand_r1	wrist_hand_r3
0	0.2159136968032602	-42.10875432561939	0.07219160185417495	0	0	0	-1.483615349188149	0.6283894390870475	-0.6283894390870475	1.483615349188149	-0.3004019291530398	2.427742723147682	1.091253645804587	-1.091253645804587	-2.427742723147682	0.3004019291530398	87.02417694219075	6.130628198058704	-87.02417694219076	-10.02125536795145	6.557300609992826	-8.893856656927967e-07	0.1274048182311949	0	9.145567891536221	0
0.0167	0.2819685931578524	-42.1201703520375	0.1091247715109783	0	0	0	-1.471729245764468	0.6233550466702901	-0.6233550466702901	1.471729245764468	-0.2979952349916857	2.40829266750542	1.082510979652878	-1.082510979652878	-2.40829266750542	0.2979952349916857	86.13064850777774	6.081512178293784	-86.13064850777775	-9.999417933387681	6.678806544734071	-8.293652095501631e-07	0.129416451867973	0	9.277760972265828	0
0.0333	0.01914102292165235	-42.13197105884056	-0.02844195721689169	0	0	0	-1.452856157397757	0.615361297199386	-0.615361297199386	1.452856157397757	-0.2941738185055742	2.377409323671941	1.068629129145579	-1.068629129145579	-2.377409323671941	0.2941738185055742	89.74811806917525	6.003524384632358	-89.74811806917525	-9.989929672115206	6.67365308824473	-7.421982575747504e-07	0.1303455727707566	0	9.33868935462765	0
0.05	0.0681098061772685	-42.13339908854645	-0.05732874786629956	0	0	0	-1.473386593807865	0.6240570210789076	-0.6240570210789076	1.473386593807865	-0.2983308142574213	2.411004701088978	1.083730020083886	-1.083730020083886	-2.411004701088978	0.2983308142574213	89.11940662139743	6.088360708577869	-89.11940662139745	-9.983059673533582	6.678986501206574	-2.946135175366732e-07	0.1308052687599381	0	9.368804613113451	0
0.0667	0.01602907746906124	-42.14749509613001	-0.06371273988585216	0	0	0	-1.457517686827671	0.6173357010536968	-0.6173357010536968	1.457517686827671	-0.2951176833923295	2.385037307676289	1.072057855458098	-1.072057855458098	-2.385037307676289	0.2951176833923295	89.76428710923697	6.022786859764305	-89.76428710923696	-9.989142384319569	6.673686235358315	-2.117976649312575e-07	0.1308824935383343	0	9.373861758924033	0
0.0833	0.02368879003023749	-42.14673882409231	-0.07000018216978611	0	0	0	-1.458580805402077	0.6177859879053526	-0.6177859879053526	1.458580805402077	-0.2953329432781515	2.386776962354484	1.072839818263267	-1.072839818263267	-2.386776962354484	0.2953329432781515	89.76714827680968	6.027179901878422	-89.76714827680968	-9.998495019236387	6.667538645226931	-1.349148702193258e-07	0.1309001803407099	0	9.375019919296314	0
0.1	0.1544425736742442	-42.13660921197253	-0.001613250551582578	0	0	0	-1.467715186391857	0.6216548805733316	-0.6216548805733316	1.467715186391857	-0.2971824696209804	2.401724183674709	1.079558491376699	-1.079558491376699	-2.401724183674709	0.2971824696209804	87.96608048879175	6.064925193269753	-87.96608048879176	-10.0236520969779	6.633629509643908	-1.253929082122093e-07	0.1308999617013561	0	9.375005602615321	0
0.1167	0.03167468352520478	-42.1530368533469	-0.09266876256656388	0	0	0	-1.464504147911866	0.6202948362259657	-0.6202948362259657	1.464504147911866	-0.296532299646329	2.396469738640953	1.077196654496253	-1.077196654496253	-2.396469738640953	0.296532299646329	89.83814075385651	6.051656468959736	-89.83814075385649	-10.00344081664634	6.666193912276322	-7.50599286749218e-08	0.1308996804927673	0	9.374987188846173	0
0.1333	0.04793222607566243	-42.15675753385434	-0.1146349868897804	0	0	0	-1.47182199320359	0.6233943301080614	-0.6233943301080614	1.47182199320359	-0.2980140144614799	2.4084444365745	1.082579198804922	-1.082579198804922	-2.4084444365745	0.2980140144614799	89.66528761397558	6.081895431315459	-89.66528761397559	-9.989416583166101	6.659735065907418	-3.016227530371207e-08	0.1308996890984662	0	9.374987752354516	0
0.15	0.04588555020780086	-42.16031782052098	-0.1149156552504156	0	0	0	-1.466427471864119	0.6211094654761959	-0.6211094654761959	1.466427471864119	-0.2969217336232418	2.399617007056511	1.078611329988865	-1.078611329988865	-2.399617007056511	0.2969217336232418	89.77775251399396	6.059604070783982	-89.77775251399396	-9.992506277701253	6.674409693053739	-2.18186471310851e-08	0.1308996899953622	0	9.374987811084006	0
0.1667	0.04725153228954043	-42.15544335336833	-0.1408168325780669	0	0	0	-1.468808778847004	0.6221180747225805	-0.6221180747225805	1.468808778847004	-0.2974038998477661	2.403513704878117	1.080362868841759	-1.080362868841759	-2.403513704878117	0.2974038998477661	89.9350138160313	6.069444160228661	-89.93501381603132	-9.999595829295625	6.677694578474433	-1.932478300064076e-08	0.1308996899983727	0	9.374987811281137	0
0.1833	0.04721049334038569	-42.14874574264014	-0.1360436575217455	0	0	0	-1.466708596032315	0.6212285364055059	-0.6212285364055059	1.466708596032315	-0.296978655548796	2.400077030036196	1.078818107152255	-1.078818107152255	-2.400077030036196	0.296978655548796	90.00379969707615	6.060765738296818	-90.00379969707616	-10.00458590269751	6.676080194750235	-5.727323568995241e-09	0.130899690000009	0	9.374987811388284	0
0.2	0.03403576967401076	-42.16384045079909	-0.1718679805170392	0	0	0	-1.46952278205945	0.622420492784257	-0.622420492784257	1.46952278205945	-0.2975484709743438	2.404682077869315	1.080888044460307	-1.080888044460307	-2.404682077869315	0.2975484709743438	90.25129345004595	6.072394580113517	-90.25129345004595	-9.985339268716789	6.666177563905714	-4.3834815205185e-09	0.1308996900000015	0	9.374987811387795	0
0.2167	0.1879031461736745	-42.13930984309306	-0.09284582083357817	0	0	0	-1.48029583322457	0.626983448797492	-0.626983448797492	1.48029583322457	-0.2997297946945637	2.4223107688818	1.088812019745956	-1.088812019745956	-2.4223107688818	0.2997297946945637	88.02264057587747	6.116911220688957	-88.02264057587747	-9.990679229724478	6.616168016815118	-4.098032436561181e-09	0.1308996900000009	0	9.374987811387756	0
0.2333	0.0153720436059702	-42.15355745050665	-0.215354422551669	0	0	0	-1.470088500044352	0.6226601042222275	-0.6226601042222275	1.470088500044352	-0.2976630173586974	2.40560780145525	1.081304150841155	-1.081304150841155	-2.40560780145525	0.2976630173586974	90.43764309686415	6.074732252497593	-90.43764309686415	-9.958072328218178	6.671855151708021	-2.427240482362558e-09	0.1308996900000002	0	9.374987811387706	0
0.25	0.009664708230716168	-42.14977341291568	-0.2175546383829838	0	0	0	-1.463756526820784	0.6199781792175761	-0.6199781792175761	1.463756526820784	-0.2963809215831677	2.395246354382668	1.076646751691749	-1.076646751691749	-2.395246354382668	0.2963809215831677	90.48542785693262	6.048567132532368	-90.48542785693262	-9.949294438249952	6.688891555867481	-1.535627081474803e-09	0.1308996900000001	0	9.374987811387697	0
0.2667	-0.001687576998483438	-42.15698194388847	-0.255084017025655	0	0	0	-1.471163578258428	0.6231154566127831	-0.6231154566127831	1.471163578258428	-0.2978806988282748	2.407367026521549	1.082094910401089	-1.082094910401089	-2.407367026521549	0.2978806988282748	90.56429811371997	6.07917471449958	-90.56429811371997	-9.934120912389925	6.669496084067578	-7.619410639146382e-10	0.13089969	0	9.374987811387696	0
0.2833	0.04342141852009905	-42.15699888188513	-0.216299239055029	0	0	0	-1.468918809526607	0.6221646785252953	-0.6221646785252953	1.468918809526607	-0.2974261788221895	2.403693755712637	1.080443800452727	-1.080443800452727	-2.403693755712637	0.2974261788221895	90.09731443122826	6.069898831439358	-90.09731443122827	-9.946415727975188	6.668349124854219	-7.085451206517364e-10	0.13089969	0	9.374987811387696	0
0.3	-0.009244883139164167	-42.16036439943782	-0.2512108982161787	0	0	0	-1.466108872931628	0.6209745220054429	-0.6209745220054429	1.466108872931628	-0.2968572238202131	2.399095661520163	1.078376988758288	-1.078376988758288	-2.399095661520163	0.2968572238202131	90.8033972385939	6.058287549220308	-90.8033972385939	-9.957789720758539	6.682330852093784	-4.79570588292101e-10	0.13089969	0	9.374987811387696	0
